<?xml version="1.0" standalone="no"?>
<!DOCTYPE svg PUBLIC "-//W3C//DTD SVG 20010904//EN"
 "http://www.w3.org/TR/2001/REC-SVG-20010904/DTD/svg10.dtd">
<svg version="1.0" xmlns="http://www.w3.org/2000/svg"
 width="225.000000pt" height="225.000000pt" viewBox="0 0 225.000000 225.000000"
 preserveAspectRatio="xMidYMid meet">

<g transform="translate(0.000000,225.000000) scale(0.100000,-0.100000)"
fill="#000000" stroke="none">
<path d="M830 2208 c-25 -5 -180 -10 -345 -11 -256 -2 -305 -4 -337 -19 -62
-28 -65 -38 -74 -293 -4 -126 -7 -248 -6 -270 7 -184 6 -447 -1 -580 -8 -141
-7 -164 8 -191 14 -25 15 -36 5 -53 -19 -36 -23 -149 -11 -307 6 -82 13 -205
17 -274 3 -68 10 -132 15 -142 5 -9 28 -23 52 -29 37 -10 47 -9 82 10 l39 22
17 -22 c14 -20 22 -21 69 -15 29 4 63 14 76 23 22 14 26 14 49 -1 35 -23 68
-20 96 10 56 60 100 65 170 19 39 -25 49 -24 49 7 0 26 29 22 56 -7 34 -37 50
-32 57 16 3 22 12 48 21 58 9 10 16 20 16 23 0 3 -55 4 -122 1 -68 -2 -145 -4
-173 -3 -144 4 -190 4 -300 -4 -92 -6 -129 -5 -160 6 -39 13 -40 14 -38 58 0
25 6 72 13 105 9 46 9 102 0 235 -8 128 -8 248 -1 445 6 149 11 326 11 395 0
115 -2 128 -25 165 -29 47 -30 75 -10 170 8 39 15 102 15 141 0 79 13 131 39
154 13 12 36 14 106 10 50 -3 180 -2 290 2 135 5 220 3 262 -4 48 -9 74 -9
116 2 30 7 70 10 88 6 19 -3 39 -6 44 -6 6 0 107 3 225 6 402 12 467 11 487
-8 16 -17 16 -19 0 -35 -16 -16 -47 -18 -310 -21 -196 -1 -306 2 -335 9 -36
10 -45 9 -61 -5 -18 -17 -24 -17 -99 -1 -60 12 -86 13 -108 5 -37 -15 -334
-31 -501 -28 -72 2 -134 0 -138 -3 -3 -4 -8 -157 -11 -340 -3 -196 -11 -401
-21 -496 -14 -139 -14 -191 -4 -360 6 -109 11 -264 11 -344 0 -152 11 -215 37
-205 8 3 136 9 286 12 173 5 275 11 279 18 5 7 22 6 57 -3 44 -11 56 -11 96 4
43 17 47 17 91 0 34 -13 56 -15 87 -9 73 14 218 9 254 -9 23 -12 39 -14 60 -8
15 5 116 12 223 15 107 3 209 9 226 12 l31 6 8 136 c9 189 10 207 5 292 -6
108 9 517 21 571 8 35 5 77 -10 185 -29 193 -30 449 -2 495 29 47 19 59 -49
59 -77 0 -90 6 -90 41 0 46 36 55 138 33 85 -17 105 -32 82 -59 -8 -10 -11
-32 -7 -61 2 -25 -1 -69 -9 -97 -19 -72 -17 -143 5 -207 18 -53 19 -74 10
-470 -6 -277 -6 -460 1 -550 20 -264 10 -398 -31 -436 -18 -16 -63 -16 -101 1
-13 5 -18 3 -18 -9 0 -23 -31 -20 -37 3 -8 29 -31 33 -86 15 -45 -15 -50 -15
-65 0 -15 14 -18 14 -44 -11 l-28 -27 -243 0 c-239 -1 -243 -1 -287 -26 -33
-19 -46 -32 -48 -52 -5 -38 27 -53 92 -42 28 4 92 8 141 9 50 1 112 6 138 10
34 5 56 4 73 -5 20 -11 27 -11 42 3 22 20 36 21 65 5 26 -14 456 -12 495 3 25
10 64 87 52 104 -8 12 -6 132 4 161 4 12 2 43 -4 70 -8 35 -8 55 1 76 9 23 9
34 -1 53 -7 13 -10 35 -6 49 3 15 1 34 -6 45 -10 16 -10 32 0 77 6 31 8 62 5
68 -4 6 -6 86 -5 179 l3 168 -31 10 c-16 6 -30 17 -30 25 0 8 14 42 31 76 29
57 31 67 25 129 -4 40 -3 84 4 108 18 68 16 270 -3 313 -15 34 -16 42 -2 95
19 71 12 135 -20 184 -13 20 -25 49 -27 64 -3 27 -7 29 -108 52 -68 16 -119
22 -145 18 -62 -9 -794 -4 -849 6 -60 11 -126 10 -186 -3z m351 -278 c19 -5
47 -22 61 -37 36 -39 91 -141 132 -249 47 -124 80 -187 123 -235 70 -77 128
-87 104 -17 -16 45 -61 337 -54 354 8 20 50 17 72 -5 27 -27 58 -132 82 -276
11 -66 27 -141 35 -168 13 -40 14 -64 5 -147 -8 -72 -8 -127 1 -204 13 -124 5
-166 -42 -211 -27 -26 -38 -30 -88 -30 -31 1 -72 6 -90 13 -32 10 -36 9 -63
-21 -28 -31 -69 -106 -105 -195 -10 -24 -27 -48 -38 -54 -36 -19 -194 -1 -318
37 -62 19 -126 35 -142 35 l-29 0 21 -23 22 -24 -118 -18 c-125 -19 -241 -17
-267 5 -7 6 -24 42 -36 78 -12 37 -46 124 -75 194 -56 132 -71 190 -60 233 8
30 32 33 41 5 11 -34 20 -23 38 47 56 215 182 350 366 393 65 15 279 8 331
-11 19 -7 63 -32 98 -56 68 -46 93 -51 147 -29 48 20 45 45 -14 130 -74 107
-232 410 -238 456 -6 40 -6 40 28 40 19 0 50 -5 70 -10z"/>
<path d="M678 1219 c-15 -8 -18 -25 -18 -110 0 -144 -20 -441 -32 -462 -13
-24 -39 -18 -56 13 -9 18 -11 51 -6 121 6 103 -3 129 -31 86 -13 -20 -14 -40
-6 -127 7 -89 11 -106 31 -122 37 -30 98 -20 116 19 4 10 11 137 15 283 3 146
10 275 14 288 8 24 0 27 -27 11z"/>
<path d="M1025 1190 c-3 -5 -6 -56 -5 -112 2 -171 5 -158 -33 -158 -69 0 -101
-76 -78 -188 15 -75 38 -106 82 -110 65 -5 63 -11 61 280 -1 145 -2 271 -2
281 0 19 -15 23 -25 7z m-7 -312 c8 -8 12 -49 12 -121 0 -105 -1 -108 -21
-105 -41 6 -63 52 -68 135 -3 65 -1 79 15 90 22 16 46 17 62 1z"/>
<path d="M1412 1062 c-20 -13 4 -48 45 -67 38 -18 149 -31 187 -21 44 11 34
44 -21 68 -52 23 -188 36 -211 20z"/>
<path d="M800 957 c-42 -11 -60 -24 -60 -44 0 -12 9 -14 49 -8 43 6 51 4 60
-13 16 -31 4 -49 -37 -56 -66 -10 -82 -29 -82 -96 0 -48 5 -64 25 -88 28 -33
75 -49 101 -34 11 6 17 25 19 63 1 30 6 95 10 145 11 125 -6 152 -85 131z m48
-217 c3 -66 -13 -96 -47 -85 -44 14 -54 83 -16 121 40 40 59 29 63 -36z"/>
<path d="M1111 884 c-18 -23 -21 -40 -21 -128 0 -141 20 -165 107 -134 45 16
42 32 -6 25 -50 -6 -68 12 -73 73 l-3 45 50 5 50 5 -1 38 c-2 44 -31 91 -61
95 -13 2 -29 -7 -42 -24z m68 -27 c6 -8 12 -24 13 -37 3 -27 -17 -36 -58 -26
-18 5 -24 13 -24 35 0 15 3 31 7 34 11 12 50 8 62 -6z"/>
<path d="M991 161 c-22 -14 -5 -58 29 -76 37 -19 46 -19 29 1 -8 9 -12 28 -10
42 4 33 -20 50 -48 33z"/>
</g>
</svg>
