<?xml version="1.0" standalone="no"?>
<!DOCTYPE svg PUBLIC "-//W3C//DTD SVG 20010904//EN"
 "http://www.w3.org/TR/2001/REC-SVG-20010904/DTD/svg10.dtd">
<svg version="1.0" xmlns="http://www.w3.org/2000/svg"
 width="512.000000pt" height="512.000000pt" viewBox="0 0 512.000000 512.000000"
 preserveAspectRatio="xMidYMid meet">

<g transform="translate(0.000000,512.000000) scale(0.100000,-0.100000)"
fill="#000000" stroke="none">
<path d="M410 2555 l0 -2155 2155 0 2155 0 0 2155 0 2155 -2155 0 -2155 0 0
-2155z m1275 1008 c103 -340 192 -625 196 -633 5 -8 9 270 9 618 l0 632 265 0
265 0 2 -1555 3 -1555 -267 0 -267 0 -14 48 c-8 26 -95 328 -193 671 l-179
623 -3 -671 -2 -671 -265 0 -265 0 0 1555 0 1555 263 0 263 0 189 -617z m2473
-1190 l-3 -1068 -26 -50 c-34 -63 -100 -129 -159 -158 -44 -22 -51 -22 -529
-25 -569 -3 -549 -6 -647 92 -98 99 -99 102 -99 526 l0 354 240 56 c132 31
252 60 268 63 l27 7 0 -285 0 -285 195 0 195 0 0 920 0 920 270 0 270 0 -2
-1067z"/>
</g>
</svg>
