<?xml version="1.0" encoding="utf-8"?>
<!-- Generator: Adobe Illustrator 17.0.0, SVG Export Plug-In . SVG Version: 6.00 Build 0)  -->
<!DOCTYPE svg PUBLIC "-//W3C//DTD SVG 1.1//EN" "http://www.w3.org/Graphics/SVG/1.1/DTD/svg11.dtd">
<svg version="1.1" id="Layer_1" xmlns="http://www.w3.org/2000/svg" xmlns:xlink="http://www.w3.org/1999/xlink" x="0px" y="0px"
	 width="40.913px" height="30.061px" viewBox="0 0 40.913 30.061" enable-background="new 0 0 40.913 30.061" xml:space="preserve">
<g>
	<path fill="#F6F6F6" d="M3.481,28.173c-0.969,0-1.453-0.484-1.453-1.453V2.984c0-0.9,0.45-1.418,1.384-1.522l2.976-0.242
		C7.357,1.116,7.91,1.634,7.91,2.603V26.72c0,0.969-0.484,1.453-1.453,1.453H3.481z M15.072,28.173c-0.726,0-1.315-0.312-1.73-0.969
		l-4.498-7.439c-0.415-0.727-0.381-1.384,0.069-2.042l4.29-6.263c0.415-0.623,1.004-0.934,1.73-0.934h3.391
		c1.211,0,1.626,0.796,0.9,1.765l-4.464,6.159l5.121,7.958c0.657,1.003,0.277,1.765-0.934,1.765H15.072z"/>
	<path fill="#F6F6F6" d="M29.503,4.749c0,1.903-1.384,3.218-3.426,3.218c-2.18,0-3.425-1.384-3.425-3.218s1.384-3.218,3.425-3.218
		C28.187,1.531,29.503,2.915,29.503,4.749z M24.624,28.173c-0.969,0-1.453-0.484-1.453-1.453V12.776c0-0.9,0.45-1.419,1.384-1.523
		l2.976-0.242c0.969-0.104,1.522,0.415,1.522,1.384V26.72c0,0.969-0.484,1.453-1.453,1.453H24.624z"/>
	<path fill="#F6F6F6" d="M39.33,4.749c0,1.903-1.384,3.218-3.426,3.218c-2.18,0-3.425-1.384-3.425-3.218s1.384-3.218,3.425-3.218
		C38.015,1.531,39.33,2.915,39.33,4.749z M34.451,28.173c-0.969,0-1.453-0.484-1.453-1.453V12.776c0-0.9,0.45-1.419,1.384-1.523
		l2.976-0.242c0.969-0.104,1.522,0.415,1.522,1.384V26.72c0,0.969-0.484,1.453-1.453,1.453H34.451z"/>
</g>
</svg>
