<svg xmlns="http://www.w3.org/2000/svg" width="143" height="35" viewBox="0 0 143 35"><g fill="#FFF" fill-rule="evenodd"><path d="M42.712 32.876v.008c0 .454-.37.823-.824.823H28.783a.824.824 0 0 1-.824-.823v-.004c0-.368.244-.692.599-.792l2.678-.76c.457-.13.773-.548.773-1.023V11.273c0-1.171-1.62-1.481-2.052-.392l-8.984 22.606c-.162.405-.553.67-.99.67h-.668c-.43 0-.817-.258-.982-.653L8.697 10.418c-.448-1.072-2.046-.753-2.046.409v19.524c0 .477.319.896.779 1.024l2.57.714a.824.824 0 0 1-.22 1.618H.823a.824.824 0 0 1-.221-1.618l2.57-.714c.46-.128.78-.547.78-1.024V3.576c0-.478-.32-.896-.78-1.024l-2.57-.716A.824.824 0 0 1 .824.22H10.89c.43 0 .82.26.984.66l8.836 21.55c.363.885 1.617.88 1.972-.008L31.292.888c.161-.404.553-.669.988-.669h8.757c.455 0 .824.368.824.823v.044c0 .35-.22.66-.548.777l-1.844.654c-.425.15-.708.552-.708 1.002V30.31c0 .473.312.888.766 1.02l2.592.753a.825.825 0 0 1 .593.792m18.56-11.702c0-6.797-1.7-10.996-5.551-10.996-3.701 0-5.453 4.298-5.453 10.996 0 6.798 1.702 10.997 5.552 10.997 3.7 0 5.452-4.299 5.452-10.997m-17.505.75c0-8.197 4.7-13.295 12.053-13.295 7.102 0 11.953 4.548 11.953 11.795 0 8.197-4.55 13.296-12.052 13.296-7.103 0-11.954-4.549-11.954-11.796m26.862 11.796v-.6c0-.358.23-.673.571-.78l2.009-.639a.819.819 0 0 0 .571-.779V14.025a.82.82 0 0 0-.69-.81l-1.771-.279a.818.818 0 0 1-.055-1.605l7.716-1.773a.819.819 0 0 1 1.002.797v2.115c0 .755.936 1.098 1.436.531 2.351-2.662 4.327-3.674 6.166-3.674 1.2 0 2.7.45 2.7 2.55 0 1.446-.55 2.719-1.079 3.53a.816.816 0 0 1-1.072.275c-1.062-.569-2.364-1.057-3.7-1.057-1.242 0-2.622.32-4.226 2.005a.836.836 0 0 0-.225.57v13.703c0 .365.242.685.594.785l2.313.661a.82.82 0 0 1 .594.787v.583H70.629zm29.254-16.144h7.427a.81.81 0 0 0 .81-.724c.039-.374.074-.782.074-1.225 0-3.2-.7-5.398-3.45-5.398-2.573 0-4.88 1.92-5.662 6.376a.82.82 0 0 0 .8.97m-7.143 4.749c0-8.597 5.652-13.695 12.254-13.695 5.752 0 9.602 3.249 9.602 8.846 0 .343-.014.767-.033 1.137a.812.812 0 0 1-.813.763h-14.91v.55c0 7.347 2.803 10.796 7.704 10.796 2.349 0 4.29-.652 6.411-2.104a.82.82 0 0 1 1.156.215.81.81 0 0 1-.14 1.058c-2.582 2.213-5.899 3.83-9.827 3.83-7.152 0-11.404-3.7-11.404-11.396m44.85-2.745c-.64 0-.641.994 0 .994.64 0 .642-.994 0-.994m-1.553-.984c-.251.04-.671.179-1.005-.106-.467 1.074-1.798 2.018-2.064.911a4.944 4.944 0 0 1 .933-1.547 2.492 2.492 0 0 1 1.314-.891.52.52 0 0 0-.012.134.441.441 0 0 0-.142.054c-.581.353-.531 1.03-.03 1.339 0 0 .372.25 1.006.106a9.69 9.69 0 0 0 .164-.892l.014-.123.007-.112.001-.024-.136.045c-.036.002-.067.015-.101.022a.44.44 0 0 0 .188-.285c.33-1.48-1.207-1.602-2.136-.889-1.031.793-2.544 2.638-2.178 4.067.523 2.04 3.328-.05 4.167-1.76l.01-.049"/><path d="M141.419 2.75c-1.172 1.75-3.284 3.024-5.156 3.89-2.231 1.033-4.652 1.605-7.059 2.056l-.1.018c2.145-2.456 4.706-4.718 7.528-6.165.893-.457 1.835-.82 2.81-1.058 1.046-.255 3.113-.44 1.977 1.26m1.127-1.86c-.557-.723-1.519-.731-2.349-.619-5.073.69-9.326 4.808-12.503 8.514l-.163.194c-2.004.292-4.06.36-5.952-.45-.617-.264-1.154.642-.532.908 1.798.77 3.668.876 5.556.702-2.7 3.559-5.002 8.337-3.627 12.715.755 2.405 2.923 3.888 5.402 4.06 2.661.186 5.1-1.279 6.86-3.154.463-.494-.28-1.24-.746-.744-1.397 1.489-3.21 2.716-5.307 2.85-2.127.134-4.282-.92-5.08-2.967-1.551-3.986.838-8.8 3.193-11.95.248-.332.506-.663.77-.994l.291-.045c2.763-.454 5.54-1.076 8.108-2.214 2.165-.958 4.51-2.417 5.862-4.416.47-.695.783-1.655.217-2.39"/><path d="M135.726 18.38c2.477-.124 4.734-1.198 6.355-3.077.413-.478-.283-1.179-.7-.697-1.449 1.68-3.432 2.676-5.655 2.787-.633.032-.637 1.019 0 .987"/></g></svg>